<svg width="22" height="24" viewBox="0 0 22 24" fill="none" xmlns="http://www.w3.org/2000/svg">
<g clip-path="url(#clip0_47_41)">
<path d="M20.7964 0.5H1.2038C0.932936 0.5 0.713989 0.737986 0.713989 1.03241V5.82407H14.9186C15.4594 5.82407 15.8982 6.30111 15.8982 6.88889C15.8982 7.47667 15.4594 7.9537 14.9186 7.9537H1.23613L8.55103 15.4074V22.0625C8.55103 22.5033 8.88018 22.8611 9.28575 22.8611C9.44445 22.8611 9.59972 22.8052 9.72658 22.7014L13.1553 19.9063C13.3399 19.7556 13.4492 19.5181 13.4492 19.2674V15.4074L20.9766 7.73701C21.174 7.53576 21.2862 7.25465 21.2862 6.96023V1.03241C21.2862 0.737986 21.0673 0.5 20.7964 0.5Z" fill="#029AAD"/>
</g>
<defs>
<clipPath id="clip0_47_41">
<rect width="21.16" height="23" fill="white" transform="translate(0.420044 0.5)"/>
</clipPath>
</defs>
</svg>
