<svg width="20" height="13" viewBox="0 0 20 13" fill="none" xmlns="http://www.w3.org/2000/svg">
<path d="M9.1992 0.707032C6.99217 0.976563 4.85545 2.00391 2.49607 3.92188C1.86717 4.42969 0.222634 6.02734 0.0820086 6.26563C-0.0898665 6.55469 -0.035179 6.66016 0.69529 7.40625C3.3242 10.1055 6.01951 11.7227 8.71092 12.2305C9.24217 12.3281 10.7578 12.3281 11.289 12.2305C13.4492 11.8242 15.4844 10.7734 17.7148 8.91016C18.2539 8.45703 19.7929 6.9375 19.9179 6.73438C20.0703 6.48047 20.0351 6.38281 19.5781 5.80859C18.8633 4.91406 17.9336 3.99609 17.0039 3.26953C15.1719 1.83984 13.2148 0.992188 11.1679 0.738282C10.7344 0.687501 9.53123 0.664063 9.1992 0.707032ZM10.8203 1.54297C12.6328 1.70703 14.4726 2.45703 16.2109 3.73828C17.0625 4.36328 18.039 5.28125 18.7422 6.10938C18.8984 6.29297 19.0234 6.46094 19.0234 6.48047C19.0234 6.53125 18.0898 7.45313 17.6172 7.87109C15.1719 10.0352 12.8594 11.2266 10.6445 11.4648C7.96873 11.75 4.6992 10.1797 1.56248 7.09375L0.957009 6.5L1.56638 5.90234C3.60154 3.90625 5.61717 2.57422 7.5781 1.92578C8.71873 1.55078 9.67576 1.4375 10.8203 1.54297Z" fill="#029AAD"/>
<path d="M9.31641 3.23439C8.21484 3.48829 7.29688 4.26564 6.91016 5.26954C6.74219 5.70704 6.67969 6.02735 6.67969 6.50001C6.67969 6.97267 6.74219 7.29298 6.91016 7.73048C7.30469 8.75782 8.30078 9.57423 9.39453 9.77735C9.71094 9.83595 10.3594 9.82814 10.6641 9.76564C11.5273 9.58204 12.2734 9.07423 12.7695 8.33595C13.1445 7.77345 13.3203 7.18751 13.3203 6.50001C13.3203 5.8086 13.1445 5.22657 12.7656 4.66017C12.3438 4.02735 11.7578 3.58204 11.0234 3.33595C10.6797 3.21876 10.5938 3.20704 10.0977 3.19532C9.72656 3.1836 9.47656 3.19923 9.31641 3.23439ZM10.5273 4.0586C11.3711 4.23439 12.125 4.9297 12.3945 5.77735C12.4648 6.00001 12.4805 6.14064 12.4805 6.51954C12.4766 6.92579 12.4609 7.02735 12.375 7.27345C12.2305 7.6797 12.0508 7.96095 11.7578 8.25782C11.4609 8.5547 11.1055 8.77345 10.7227 8.89454C10.5 8.96485 10.3594 8.98048 9.98047 8.98048C9.57422 8.97657 9.47266 8.96095 9.22656 8.87501C8.81641 8.72657 8.53906 8.55079 8.22266 8.23829C7.46875 7.48829 7.28906 6.34767 7.77344 5.38282C8.28906 4.36329 9.40625 3.82423 10.5273 4.0586Z" fill="#029AAD"/>
</svg>
