<svg width="26" height="26" viewBox="0 0 26 26" fill="none" xmlns="http://www.w3.org/2000/svg">
<path d="M19.5566 16.89C19.6233 16.9637 19.6666 17.0591 19.6666 17.1666C19.6666 17.3971 19.4804 17.5833 19.25 17.5833C19.1375 17.5833 19.0358 17.5379 18.9612 17.4654L17.007 15.2946C16.8925 15.1658 16.727 15.0833 16.5416 15.0833C16.1966 15.0833 15.9166 15.3633 15.9166 15.7083C15.9166 15.805 15.9408 15.8958 15.98 15.9779C16.8808 17.8516 17.2308 18.4366 17.4358 19.6362C17.7345 21.3875 18.8333 21.3366 18.8333 23.4166H22.5833V15.9166H18.6841L19.5566 16.89Z" fill="#029AAD"/>
<path d="M23.2083 13H14.6666L13.4166 14.0417L14.6666 15.0833H15.23C15.4645 14.5925 15.9625 14.25 16.5416 14.25C17.2537 14.25 17.5625 14.6667 17.9379 15.0833H23.2083C23.7837 15.0833 24.25 14.6171 24.25 14.0417C24.25 13.4662 23.7837 13 23.2083 13Z" fill="#029AAD"/>
<path d="M21.75 12.1667C20.9955 11.6992 19.4284 10.9167 18.5788 10.9167C17.9205 10.9167 17.305 11.195 16.3334 12.1667H21.75Z" fill="#029AAD"/>
<path d="M15.5933 17.09C15.2495 16.3804 15.1591 16.2679 15.107 15.9167H14.3654L12.1158 14.0417L14.3654 12.1667H15.1554C16.0341 11.2879 16.8525 10.3934 17.9754 10.15L15.4733 2.45127C15.4179 2.28669 15.2662 2.16669 15.0833 2.16669C15.0395 2.16669 14.9987 2.17877 14.9587 2.1921L2.44829 6.36044C2.28538 6.4171 2.16663 6.56794 2.16663 6.75002C2.16663 6.79294 2.17871 6.83169 2.19121 6.87085L7.61038 23.5488C7.66538 23.7134 7.81704 23.8334 7.99996 23.8334C8.04371 23.8334 8.08454 23.8213 8.12454 23.8079L16.9495 20.8671C16.8116 20.5704 16.69 20.2188 16.6145 19.7763C16.46 18.8709 16.2237 18.3859 15.5933 17.09ZM4.69829 7.80669L7.13038 6.99669L7.94871 9.51502L5.50704 10.3284L4.69829 7.80669ZM8.18079 15.2367C7.69079 14.9734 8.12413 15.2063 5.68538 13.8963L6.27663 12.795L7.63871 13.5263L8.92163 10.9604L10.04 11.5196C8.12954 15.3396 8.43704 14.725 8.18079 15.2367ZM10.2916 8.00002C9.94663 8.00002 9.66663 7.72002 9.66663 7.37502C9.66663 7.09919 9.84663 6.86752 10.0945 6.7846L13.8445 5.5346C13.907 5.51377 13.9725 5.50002 14.0416 5.50002C14.3866 5.50002 14.6666 5.78002 14.6666 6.12502C14.6666 6.40085 14.4866 6.63252 14.2387 6.71544L10.4887 7.96544C10.4262 7.98627 10.3608 8.00002 10.2916 8.00002ZM11.5416 10.9167C11.1966 10.9167 10.9166 10.6367 10.9166 10.2917C10.9166 10.0159 11.0966 9.78419 11.3445 9.70127L15.0945 8.45127C15.157 8.43044 15.2225 8.41669 15.2916 8.41669C15.6366 8.41669 15.9166 8.69669 15.9166 9.04169C15.9166 9.31752 15.7366 9.54919 15.4887 9.6321L11.7387 10.8821C11.6762 10.9029 11.6108 10.9167 11.5416 10.9167Z" fill="#029AAD"/>
</svg>
