<svg width="26" height="26" viewBox="0 0 26 26" fill="none" xmlns="http://www.w3.org/2000/svg">
<path d="M11.75 18C11.75 18.7884 11.4737 19.5121 11.0142 20.0834H21.3333C22.4842 20.0834 23.4167 19.1509 23.4167 18V17.1667H11.75V18Z" fill="#029AAD"/>
<path d="M20.5 4.25V2.58333C20.5 2.12333 20.1267 1.75 19.6667 1.75C19.2067 1.75 18.8334 2.12333 18.8334 2.58333V5.70833C18.8334 6.05333 18.5534 6.33333 18.2084 6.33333C17.8634 6.33333 17.5834 6.05333 17.5834 5.70833V4.25H15.9167V2.58333C15.9167 2.12333 15.5434 1.75 15.0834 1.75C14.6234 1.75 14.25 2.12333 14.25 2.58333V5.70833C14.25 6.05333 13.97 6.33333 13.625 6.33333C13.28 6.33333 13 6.05333 13 5.70833V4.25H11.3334V2.58333C11.3334 2.12333 10.96 1.75 10.5 1.75C10.04 1.75 9.66671 2.12333 9.66671 2.58333V5.70833C9.66671 6.05333 9.38671 6.33333 9.04171 6.33333C8.69671 6.33333 8.41671 6.05333 8.41671 5.70833V4.25H8.00004C7.07962 4.25 6.33337 4.99625 6.33337 5.91667V18C6.33337 19.1508 7.26587 20.0833 8.41671 20.0833C9.56754 20.0833 10.5 19.1508 10.5 18V15.9167H22.1667V5.91667C22.1667 4.99625 21.4205 4.25 20.5 4.25ZM18.153 9.85792L14.403 13.6079C14.2542 13.7479 14.0538 13.8333 13.8334 13.8333C13.603 13.8333 13.3946 13.74 13.2442 13.5892L11.1609 11.5058C11.01 11.3554 10.9167 11.1471 10.9167 10.9167C10.9167 10.4567 11.29 10.0833 11.75 10.0833C11.9805 10.0833 12.1888 10.1767 12.3392 10.3275L13.8521 11.8404L17.0138 8.64208C17.1625 8.50208 17.363 8.41667 17.5834 8.41667C18.0434 8.41667 18.4167 8.79 18.4167 9.25C18.4167 9.49 18.3155 9.70625 18.153 9.85792Z" fill="#029AAD"/>
<path d="M8.41663 21.3334C6.57871 21.3334 5.08329 19.8379 5.08329 18V5.91669H3.83329C3.60288 5.91669 3.41663 6.10294 3.41663 6.33335V23.4167C3.41663 23.6471 3.60288 23.8334 3.83329 23.8334H18.8333C19.0637 23.8334 19.25 23.6471 19.25 23.4167V21.3334H8.41663Z" fill="#029AAD"/>
</svg>
