<svg width="20" height="20" viewBox="0 0 20 20" fill="none" xmlns="http://www.w3.org/2000/svg">
<path d="M17.3973 15.4933C15.9636 14.5053 15.6666 13.1127 15.6666 10.3333V8.66667C15.6666 5.908 13.6943 3.612 11.0829 3.106C11.2393 2.88767 11.3333 2.62233 11.3333 2.33333C11.3333 1.597 10.7363 1 9.99992 1C9.26359 1 8.66659 1.597 8.66659 2.33333C8.66659 2.62233 8.76059 2.88767 8.91692 3.106C6.30559 3.612 4.33325 5.908 4.33325 8.66667V10.3333C4.33325 13.1127 4.03625 14.5053 2.60259 15.4933C2.43125 15.6117 2.33325 15.8107 2.33325 16.0187C2.33325 16.3763 2.62359 16.6667 2.98159 16.6667H17.0183C17.3763 16.6667 17.6666 16.3763 17.6666 16.0187C17.6666 15.8107 17.5686 15.6117 17.3973 15.4933Z" fill="#029AAD"/>
<path d="M11.3334 18C11.3334 18.7363 10.7364 19.3333 10.0001 19.3333C9.26375 19.3333 8.66675 18.7363 8.66675 18V17.6667H11.3334V18Z" fill="#029AAD"/>
<circle cx="16" cy="4" r="4" fill="#FF0000"/>
</svg>
