<svg width="26" height="26" viewBox="0 0 26 26" fill="none" xmlns="http://www.w3.org/2000/svg">
<path d="M10.6404 9.25001L11.94 7.17126C12.4304 6.38584 13.2762 5.91668 14.2029 5.91668H18V1.75001C18 1.52001 17.8133 1.33334 17.5833 1.33334H9.24996V4.66668C9.24996 5.35584 8.68913 5.91668 7.99996 5.91668H4.66663V9.25001H10.6404ZM11.5416 3.00001H15.7083C16.0537 3.00001 16.3333 3.28001 16.3333 3.62501C16.3333 3.97001 16.0537 4.25001 15.7083 4.25001H11.5416C11.1962 4.25001 10.9166 3.97001 10.9166 3.62501C10.9166 3.28001 11.1962 3.00001 11.5416 3.00001Z" fill="#029AAD"/>
<path d="M17.1667 11.3333C13.485 11.3333 10.5 14.3183 10.5 18C10.5 21.6817 13.485 24.6667 17.1667 24.6667C20.8483 24.6667 23.8333 21.6817 23.8333 18C23.8333 14.3183 20.8483 11.3333 17.1667 11.3333ZM17.1667 17.1667C18.7746 17.1667 20.0833 18.2879 20.0833 19.6667C20.0833 20.7971 19.2033 21.7533 18 22.0613V22.1667C18 22.6267 17.6267 23 17.1667 23C16.7067 23 16.3333 22.6267 16.3333 22.1667V22.0613C15.2363 21.7729 14.5733 20.9588 14.3287 20.4371C14.2754 20.3225 14.25 20.2021 14.25 20.0833C14.25 19.62 14.6271 19.25 15.0833 19.25C15.3967 19.25 15.6967 19.4279 15.8379 19.7296C15.8733 19.7992 16.2533 20.5 17.1667 20.5C17.8325 20.5 18.4167 20.1104 18.4167 19.6667C18.4167 19.2229 17.8325 18.8333 17.1667 18.8333C15.5588 18.8333 14.25 17.7121 14.25 16.3333C14.25 15.2029 15.13 14.2467 16.3333 13.9388V13.8333C16.3333 13.3733 16.7067 13 17.1667 13C17.6267 13 18 13.3733 18 13.8333V13.9388C19.0971 14.2271 19.76 15.0413 20.0046 15.5629C20.0579 15.6775 20.0833 15.7979 20.0833 15.9167C20.0833 16.3792 19.7071 16.75 19.25 16.75C18.9375 16.75 18.6375 16.5725 18.4954 16.2704C18.46 16.2008 18.08 15.5 17.1667 15.5C16.5008 15.5 15.9167 15.8896 15.9167 16.3333C15.9167 16.7771 16.5008 17.1667 17.1667 17.1667Z" fill="#029AAD"/>
<path d="M4.96163 5.08334H7.99996C8.22996 5.08334 8.41663 4.89668 8.41663 4.66668V1.62834C8.41663 1.45043 8.27163 1.33334 8.11954 1.33334C8.04704 1.33334 7.97329 1.35959 7.91329 1.42001L4.75288 4.58043C4.69163 4.64126 4.66663 4.71709 4.66663 4.79084C4.66663 4.94084 4.78538 5.08334 4.96163 5.08334Z" fill="#029AAD"/>
<path d="M17.1667 10.0833C18.3446 10.0833 19.4587 10.3475 20.4633 10.8092L21.2696 8.59249C21.31 8.48124 21.3333 8.36374 21.3333 8.24499C21.3333 7.65207 20.8737 7.16666 20.2217 7.16666H14.2029C13.7137 7.16666 13.2592 7.41874 12.9996 7.83374L11.3333 10.5H2.84875C2.18542 10.5 1.75 11.0121 1.75 11.5442C1.75 11.6737 1.76875 11.8029 1.8125 11.925L5.24625 21.4633C5.39833 21.885 5.79875 22.1667 6.2475 22.1667H10.4442C9.69208 20.9554 9.25 19.5308 9.25 18C9.25 13.5733 12.845 10.0833 17.1667 10.0833Z" fill="#029AAD"/>
</svg>
