<svg width="20" height="20" viewBox="0 0 20 20" fill="none" xmlns="http://www.w3.org/2000/svg">
<path d="M9.99992 18.6667C9.54192 18.6667 9.07558 18.6293 8.61392 18.555L8.33325 18.51V16.795C8.33225 16.263 7.86125 15.6683 7.18725 15.6663C6.91892 15.6663 6.65825 15.7647 6.45058 15.9433L5.06925 17.1313L4.85525 16.9733C4.15459 16.456 3.53792 15.8383 3.02125 15.137L2.86392 14.9237L4.06159 13.526C4.23692 13.3227 4.33325 13.0623 4.33325 12.7933C4.33325 12.1723 3.82759 11.6667 3.20659 11.6667H1.48992L1.44525 11.386C1.37059 10.9243 1.33325 10.458 1.33325 9.99999C1.33325 9.54199 1.37059 9.07566 1.44492 8.61399L1.48992 8.33333H3.20659C3.82759 8.33333 4.33325 7.82766 4.33325 7.20666C4.33325 6.93766 4.23692 6.67733 4.06225 6.47333L2.86425 5.07566L3.02158 4.86233C3.53825 4.16099 4.15492 3.54333 4.85559 3.02599L5.06958 2.86799L6.45092 4.05599C6.65859 4.23466 6.91925 4.33299 7.18425 4.33299C7.86158 4.33099 8.33258 3.73633 8.33358 3.20366V1.48999L8.61425 1.44499C9.07558 1.37066 9.54192 1.33333 9.99992 1.33333C10.4579 1.33333 10.9243 1.37066 11.3859 1.44499L11.6666 1.48999V3.20499C11.6676 3.73699 12.1386 4.33166 12.8126 4.33366C13.0809 4.33366 13.3416 4.23533 13.5493 4.05666L14.9306 2.86866L15.1446 3.02666C15.8453 3.54399 16.4619 4.16166 16.9786 4.86299L17.1359 5.07633L15.9383 6.47399C15.7629 6.67733 15.6666 6.93766 15.6666 7.20666C15.6666 7.82766 16.1723 8.33333 16.7933 8.33333H18.5099L18.5549 8.61399C18.6293 9.07566 18.6666 9.54199 18.6666 9.99999C18.6666 10.458 18.6293 10.9243 18.5549 11.386L18.5099 11.6667H16.7933C16.1723 11.6667 15.6666 12.1723 15.6666 12.7933C15.6666 13.0623 15.7629 13.3227 15.9376 13.5267L17.1356 14.9243L16.9783 15.1377C16.4616 15.839 15.8449 16.4567 15.1443 16.974L14.9303 17.132L13.5489 15.944C13.3416 15.765 13.0809 15.6667 12.8159 15.6667C12.1386 15.6687 11.6676 16.2633 11.6666 16.796V18.5103L11.3859 18.5553C10.9243 18.6293 10.4579 18.6667 9.99992 18.6667ZM9.99992 7.99999C8.89692 7.99999 7.99992 8.89699 7.99992 9.99999C7.99992 11.103 8.89692 12 9.99992 12C11.1029 12 11.9999 11.103 11.9999 9.99999C11.9999 8.89699 11.1029 7.99999 9.99992 7.99999Z" fill="#029AAD"/>
</svg>
