<svg width="25" height="26" viewBox="0 0 25 26" fill="none" xmlns="http://www.w3.org/2000/svg">
<path d="M10.8333 2.16667C5.77079 2.16667 1.66663 6.27084 1.66663 11.3333C1.66663 16.3958 5.77079 20.5 10.8333 20.5C15.8958 20.5 20 16.3958 20 11.3333C20 6.27084 15.8958 2.16667 10.8333 2.16667ZM10.8333 17.1667C7.61163 17.1667 4.99996 14.555 4.99996 11.3333C4.99996 8.11167 7.61163 5.50001 10.8333 5.50001C14.055 5.50001 16.6666 8.11167 16.6666 11.3333C16.6666 14.555 14.055 17.1667 10.8333 17.1667Z" fill="#029AAD"/>
<path d="M23.2621 21.405L19.5805 17.7229C18.9205 18.6246 18.1251 19.42 17.2234 20.08L20.9051 23.7617C21.2067 24.0637 21.6234 24.25 22.0834 24.25C23.0038 24.25 23.7501 23.5038 23.7501 22.5833C23.7501 22.1233 23.5634 21.7067 23.2621 21.405Z" fill="#029AAD"/>
</svg>
