<svg width="26" height="26" viewBox="0 0 26 26" fill="none" xmlns="http://www.w3.org/2000/svg">
<path d="M4.66667 10.9166H2.58333C2.12333 10.9166 1.75 11.29 1.75 11.75V14.25C1.75 14.71 2.12333 15.0833 2.58333 15.0833H4.66667V10.9166Z" fill="#029AAD"/>
<path d="M16.8891 12.352L12.8308 8.59079C12.4195 8.20746 11.75 8.49829 11.75 9.06037V10.9166H5.91663V15.0833H11.75V16.94C11.75 17.5016 12.4195 17.7925 12.8304 17.4091L16.8891 13.6479C17.077 13.4729 17.1666 13.2362 17.1666 13C17.1666 12.7637 17.077 12.5275 16.8891 12.352Z" fill="#029AAD"/>
<path d="M3.83333 8.00004C3.37333 8.00004 3 7.62671 3 7.16671C3 6.70671 3.37333 6.33337 3.83333 6.33337H5.91667C6.37667 6.33337 6.75 6.70671 6.75 7.16671C6.75 7.62671 6.37667 8.00004 5.91667 8.00004H3.83333Z" fill="#029AAD"/>
<path d="M2.58333 20.9167C2.12333 20.9167 1.75 20.5433 1.75 20.0833C1.75 19.6233 2.12333 19.25 2.58333 19.25H4.66667C5.12667 19.25 5.5 19.6233 5.5 20.0833C5.5 20.5433 5.12667 20.9167 4.66667 20.9167H2.58333Z" fill="#029AAD"/>
<path d="M21.3333 2.16663H10.5C9.34913 2.16663 8.41663 3.09913 8.41663 4.24996V9.24996H10.0833V9.06038C10.0833 8.14079 10.6283 7.30954 11.4716 6.94288C12.3141 6.57579 13.2945 6.74413 13.9675 7.37204L18.0216 11.13C18.5391 11.612 18.8333 12.2925 18.8333 13C18.8333 13.7075 18.5391 14.3879 18.0258 14.8662L13.9629 18.6312C13.53 19.0358 12.9658 19.25 12.3929 19.25C12.082 19.25 11.7687 19.1866 11.472 19.0575C10.6287 18.6908 10.0833 17.86 10.0833 16.94V16.75H8.41663V21.75C8.41663 22.9008 9.34913 23.8333 10.5 23.8333H21.3333C22.4841 23.8333 23.4166 22.9008 23.4166 21.75V4.24996C23.4166 3.09913 22.4841 2.16663 21.3333 2.16663Z" fill="#029AAD"/>
</svg>
