<svg width="26" height="26" viewBox="0 0 26 26" fill="none" xmlns="http://www.w3.org/2000/svg">
<g clip-path="url(#clip0_47_21)">
<path d="M18.8333 13.4167C15.8416 13.4167 13.4166 15.8417 13.4166 18.8333C13.4166 21.825 15.8416 24.25 18.8333 24.25C21.825 24.25 24.25 21.825 24.25 18.8333C24.25 15.8417 21.825 13.4167 18.8333 13.4167ZM20.9166 22.1667H16.75C16.29 22.1667 15.9166 21.7933 15.9166 21.3333V18.8333H17.1666V19.6667C17.1666 19.8971 17.3529 20.0833 17.5833 20.0833C17.8137 20.0833 18 19.8971 18 19.6667V18.8333H19.6666V19.6667C19.6666 19.8971 19.8529 20.0833 20.0833 20.0833C20.3137 20.0833 20.5 19.8971 20.5 19.6667V18.8333H21.75V21.3333C21.75 21.7933 21.3766 22.1667 20.9166 22.1667ZM22.1666 17.5833C22.1666 17.8137 21.9804 18 21.7679 18H15.9345C15.6862 18 15.5 17.8137 15.5 17.5833V17.1667C15.5 16.7067 15.8733 16.3333 16.3333 16.3333H17.5833V15.5C17.5833 15.2696 17.7695 15.0833 18 15.0833H19.6666C19.897 15.0833 20.0833 15.2696 20.0833 15.5V16.3333H21.3333C21.7933 16.3333 22.1666 16.7067 22.1666 17.1667V17.5833Z" fill="white"/>
<path d="M12.8155 20.5H11.3221C11.8317 20.1204 12.1667 19.5183 12.1667 18.8333C12.1667 17.6825 11.2342 16.75 10.0834 16.75C8.93254 16.75 8.00004 17.6825 8.00004 18.8333C8.00004 19.5183 8.33504 20.1204 8.84462 20.5H3.41671C2.95671 20.5 2.58337 20.8733 2.58337 21.3333C2.58337 21.7933 2.95671 22.1667 3.41671 22.1667H13.5525C13.23 21.6558 12.9796 21.0967 12.8155 20.5Z" fill="white"/>
<path d="M18.8334 12.5833C20.8813 12.5833 22.6934 13.5729 23.8334 15.0946V11.75H21.5417C21.1967 11.75 20.9167 11.47 20.9167 11.125C20.9167 10.78 21.1967 10.5 21.5417 10.5H23.8334V9.25001H19.875C19.53 9.25001 19.25 8.97001 19.25 8.62501C19.25 8.28001 19.53 8.00001 19.875 8.00001H23.8334V6.75001H20.7084C20.3634 6.75001 20.0834 6.47001 20.0834 6.12501C20.0834 5.78001 20.3634 5.50001 20.7084 5.50001H23.8334V3.83334H11.3588C10.8017 3.83334 10.2813 4.11168 9.97212 4.57543L6.90004 9.18418C6.50796 9.77209 5.95837 10.2371 5.31379 10.5263L3.32254 11.4192C2.87254 11.62 2.58337 12.0671 2.58337 12.5596V16.3333H4.25004C4.48046 16.3333 4.66671 16.5196 4.66671 16.75C4.66671 16.9804 4.48046 17.1667 4.25004 17.1667H2.58337V18C2.58337 18.46 2.95671 18.8333 3.41671 18.8333H7.16671C7.16671 17.2225 8.47254 15.9167 10.0834 15.9167C11.2421 15.9167 12.24 16.5942 12.7105 17.5729C13.2938 14.7254 15.8134 12.5833 18.8334 12.5833ZM5.91671 13.8333H4.25004C4.01962 13.8333 3.83337 13.6471 3.83337 13.4167V12.8292C3.83337 12.665 3.92962 12.5163 4.07962 12.4492L5.91671 11.6254V13.8333ZM7.61421 10.5L10.6959 5.87168C10.8509 5.63959 11.1113 5.50001 11.39 5.50001H13.4167V10.5H7.61421Z" fill="white"/>
<path d="M5.08333 3.83332C4.62333 3.83332 4.25 3.45999 4.25 2.99999C4.25 2.53999 4.62333 2.16666 5.08333 2.16666H7.58333C8.04333 2.16666 8.41667 2.53999 8.41667 2.99999C8.41667 3.45999 8.04333 3.83332 7.58333 3.83332H5.08333Z" fill="white"/>
<path d="M1.74996 8.41667C1.28996 8.41667 0.916626 8.04333 0.916626 7.58333C0.916626 7.12333 1.28996 6.75 1.74996 6.75H5.08329C5.54329 6.75 5.91663 7.12333 5.91663 7.58333C5.91663 8.04333 5.54329 8.41667 5.08329 8.41667H1.74996Z" fill="white"/>
</g>
<defs>
<clipPath id="clip0_47_21">
<rect width="25" height="25" fill="white" transform="translate(0.5 0.5)"/>
</clipPath>
</defs>
</svg>
